# xmcd
#
# Track frame offsets:
#	150
#	16665
#	33497
#	50167
#	68670
#	86705
#	100502
#	116042
#	137217
#	157525
#	176630
#	196297
#
# Disc length: 2912 seconds
#
# Revision: 1
# Processed by: cddbd v1.5.1PL0 Copyright (c) Steve Scherf et al.
# Submitted via: CDex 1.50Beta5
#
DISCID=950b5e0c
DTITLE=小椋佳 - さらば青春〜俺たちの旅 Disc 2
DYEAR=1900
DGENRE=
TTITLE0=俺たちの旅
TTITLE1=ただお前がいい
TTITLE2=時
TTITLE3=シクラメンのかほり
TTITLE4=泣かせて
TTITLE5=夢芝居
TTITLE6=愛しき日々
TTITLE7=愛燦燦
TTITLE8=逢うたびに君は
TTITLE9=君の声聴けば
TTITLE10=夢積み上げて
TTITLE11=歓送の歌
EXTD=
EXTT0=
EXTT1=
EXTT2=
EXTT3=
EXTT4=
EXTT5=
EXTT6=
EXTT7=
EXTT8=
EXTT9=
EXTT10=
EXTT11=
PLAYORDER=
